<?xml version="1.0" encoding="UTF-8"?>
<svg width="24" height="24" version="1.1" viewBox="0 0 24 24" xmlns="http://www.w3.org/2000/svg">
 <circle cx="12.052" cy="10.146" r="9.249" fill="#fff" stroke-miterlimit="50"/>
 <path d="m12 0c-5.522 0-10 4.395-10 9.815 0 5.505 4.375 9.268 10 14.185 5.625-4.917 10-8.68 10-14.185 0-5.42-4.478-9.815-10-9.815zm0 18c-4.419 0-8-3.582-8-8s3.581-8 8-8 8 3.582 8 8-3.581 8-8 8z"/>
 <path d="m14.609 14.859h-5.2174l-1.0452-6.043c-0.26087 0.47261-0.56 1.0156-0.74087 1.3456-0.21565 0.39435-0.82261 0.23956-0.82261-0.2087 0-0.07043 0.02348-0.14217 0.05957-0.20869 0.36-0.65826 1.19-2.1578 1.2522-2.27l-8.7e-4 -0.0065h4.3148l0.70565-2.7213c0.05217-0.19435 0.22783-0.32217 0.41956-0.32217 0.28304 0 0.49522 0.26913 0.42087 0.54739l-0.64565 2.4961h0.17304l1.8256-2.4217c0.13783-0.19696 0.40913-0.24478 0.60565-0.10696 0.19652 0.13739 0.24435 0.40913 0.10696 0.60565l-1.477 1.923h1.3765l-3e-3 0.01565c0.09217 0.16609 0.89522 1.6165 1.2474 2.2609 0.03609 0.06652 0.05348 0.13826 0.05348 0.20869 0 0.45043-0.60174 0.60174-0.81652 0.2087-0.17956-0.32869-0.47608-0.86608-0.73608-1.3365zm-1.0739-3.4783h-3.0565l-1.0396-1.4552 0.68043 4.0639h3.7743l0.68043-4.0639zm1.1052-3.0435h-5.2669l1.5526 2.1739h2.1613zm-1.7639 1.0869c0-0.12-0.09739-0.21739-0.21739-0.21739h-1.3043c-0.12 0-0.21739 0.09739-0.21739 0.21739 0 0.11956 0.09739 0.21739 0.21739 0.21739h1.3043c0.12 0 0.21739-0.09783 0.21739-0.21739" stroke-width=".43478"/>
</svg>