<?xml version="1.0" encoding="UTF-8"?>
<svg width="24" height="24" version="1.1" viewBox="0 0 24 24" xmlns="http://www.w3.org/2000/svg">
 <circle cx="12.052" cy="10.146" r="9.249" fill="#fff" stroke-miterlimit="50"/>
 <path d="m12 0c-5.522 0-10 4.395-10 9.815 0 5.505 4.375 9.268 10 14.185 5.625-4.917 10-8.68 10-14.185 0-5.42-4.478-9.815-10-9.815zm0 18c-4.419 0-8-3.582-8-8s3.581-8 8-8 8 3.582 8 8-3.581 8-8 8z"/>
 <path d="m11.781 10.151 0.69467-0.85123c0.15805-0.2023 0.0833-0.36742-0.02045-0.80511-0.07624-0.3239-0.01636-0.68946 0.21271-0.92969 0.65488-0.68574 1.9869-2.0226 1.9869-2.0226l0.17553 0.13759-1.3733 1.7582 0.29378 0.22945 1.4392-1.7069 0.17813 0.13871-1.3231 1.798 0.29378 0.22982 1.4447-1.7032 0.16474 0.12904-1.3157 1.8036 0.29416 0.22945 1.3733-1.7582 0.16102 0.1257s-0.94829 1.6214-1.4496 2.4302c-0.17813 0.28672-0.52992 0.43175-0.86796 0.43398-0.45034 0.0026-0.62661-0.0331-0.78726 0.17255l-0.84825 1.0394c0.90924 1.1015 1.6954 2.0569 2.0725 2.5395 0.28672 0.36704 0.02417 0.90032-0.44551 0.90032-0.15619 0-0.31721-0.06359-0.43398-0.21309l-3.1089-3.7455s-0.34436 0.26738-0.72293 0.56451c-1.1796-1.9278-2.3306-4.3365-2.3306-5.1895 0-0.0476-0.01264-0.34361 0.27221-0.34361 0.09111 0 0.18334 0.04314 0.25064 0.12792 0.18929 0.23875 2.0137 2.422 3.7195 4.4807m-1.0978 1.3451 0.72628 0.87949-1.5303 1.8798c-0.1097 0.14057-0.2737 0.2142-0.43956 0.2142-0.44551 0-0.74041-0.52137-0.44216-0.90292z" fill="#030405" stroke-width=".37188"/>
</svg>